<svg width="50" height="50" viewBox="0 0 72 72" fill="none" xmlns="http://www.w3.org/2000/svg">
<g clip-path="url(#clip0_322_316)">
<path d="M53.1694 67.5065C52.9024 67.6475 52.9174 67.7045 53.1844 67.5695C53.2626 67.536 53.3338 67.4882 53.3944 67.4285C53.3944 67.3805 53.3884 67.3865 53.1694 67.5065ZM53.7034 67.2245C53.5774 67.3235 53.5774 67.3295 53.7304 67.2515C53.8144 67.2095 53.8864 67.1615 53.8864 67.1465C53.8864 67.0895 53.8504 67.1045 53.7034 67.2245ZM54.0544 67.0115C53.9284 67.1105 53.9284 67.1165 54.0814 67.0385C54.1654 66.9965 54.2374 66.9485 54.2374 66.9335C54.2374 66.8765 54.2014 66.8915 54.0544 67.0115ZM54.4054 66.8015C54.2794 66.9005 54.2794 66.9065 54.4324 66.8285C54.5164 66.7865 54.5884 66.7385 54.5884 66.7235C54.5884 66.6665 54.5524 66.6815 54.4054 66.8015ZM54.8914 66.4865C54.6454 66.6425 54.5674 66.7475 54.7864 66.6275C54.9424 66.5375 55.1944 66.3455 55.1524 66.3395C55.0604 66.379 54.9729 66.4283 54.8914 66.4865ZM33.3724 0.018517C33.2164 0.033517 32.7244 0.081517 32.2804 0.117517C22.0564 1.03852 12.4774 6.55552 6.4114 15.0365C3.05788 19.6915 0.878098 25.0874 0.0573984 30.7655C-0.230602 32.7425 -0.266602 33.3275 -0.266602 36.0095C-0.266602 38.6915 -0.230602 39.2735 0.0573984 41.2535C2.0134 54.7715 11.6344 66.1295 24.6814 70.3385C27.0184 71.0915 29.4814 71.6045 32.2804 71.9135C33.3724 72.0335 38.0854 72.0335 39.1774 71.9135C44.0104 71.3795 48.1084 70.1825 52.1464 68.1215C52.7644 67.8035 52.8844 67.7195 52.8004 67.6505C50.8279 65.0443 48.8739 62.4243 46.9384 59.7905L41.1814 52.0145L33.9694 41.3405C31.5715 37.7689 29.1504 34.2128 26.7064 30.6725C26.6794 30.6665 26.6494 35.4095 26.6374 41.1995C26.6164 51.3395 26.6104 51.7475 26.4814 51.9875C26.359 52.2679 26.1395 52.4948 25.8634 52.6265C25.6384 52.7405 25.4404 52.7615 24.3784 52.7615H23.1604L22.8364 52.5575C22.6365 52.4315 22.4739 52.2544 22.3654 52.0445L22.2184 51.7265L22.2334 37.6175L22.2544 23.5025L22.4734 23.2295C22.6205 23.0566 22.7973 22.9114 22.9954 22.8005C23.2834 22.6595 23.3974 22.6445 24.6154 22.6445C26.0524 22.6445 26.2894 22.7015 26.6644 23.1095C29.5838 27.4543 32.4789 31.8153 35.3494 36.1925C40.0234 43.2785 46.4104 52.9535 49.5514 57.7055L55.2514 66.3395L55.5394 66.1505C58.2821 64.3261 60.7691 62.1439 62.9344 59.6615C67.4703 54.4705 70.412 48.0809 71.4064 41.2595C71.6944 39.2825 71.7304 38.6975 71.7304 36.0155C71.7304 33.3335 71.6944 32.7515 71.4064 30.7715C69.4504 17.2535 59.8294 5.89552 46.7824 1.68652C44.3442 0.91026 41.8332 0.384543 39.2884 0.117517C38.6134 0.048517 33.9604 -0.029483 33.3784 0.027517L33.3724 0.018517ZM48.1084 21.7925C48.2762 21.8768 48.4255 21.9938 48.5476 22.1364C48.6696 22.2791 48.7621 22.4447 48.8194 22.6235C48.8764 22.8065 48.8884 26.7185 48.8764 35.5355L48.8554 48.1895L46.6234 44.7695L44.3854 41.3495V32.1515C44.3854 26.2055 44.4124 22.8635 44.4544 22.7015C44.5053 22.5145 44.5931 22.3397 44.7126 22.1871C44.8322 22.0346 44.981 21.9076 45.1504 21.8135C45.4384 21.6665 45.5434 21.6515 46.6504 21.6515C47.6914 21.6515 47.8744 21.6665 48.1084 21.7925Z" fill="#6F20A1"/>
</g>
<defs>
<clipPath id="clip0_322_316">
<rect width="72" height="72" fill="white"/>
</clipPath>
</defs>
</svg>
