<svg width="800" height="800" viewBox="0 0 800 800" fill="none" xmlns="http://www.w3.org/2000/svg">
<path d="M423.261 315.708L338.685 84H698L613.133 316.382C609.454 317.201 605.869 318.233 602.386 319.475L518.549 160.695L434.469 318.536C430.835 317.373 427.095 316.416 423.261 315.708ZM146.937 695.006C259.953 768.705 385.309 626.099 556.063 608.135C654.119 602.741 720.77 547.01 682.793 460.739C612.186 501.113 546.198 448.206 546.659 395.115H493.006C491.244 442.514 452.843 479.805 393.315 474.262C346.721 538.974 292.719 575.332 231.444 593.812C190.029 576.069 151.054 532.847 168.726 475.117C160.894 474.306 153.381 472.518 146.315 469.895C89.3525 568.644 82.3145 646.686 146.937 695.006ZM231.075 395.123C231.075 357.617 187.04 334.048 152.003 352.801C116.966 371.554 116.966 418.691 152.003 437.444C187.04 456.197 231.075 432.629 231.075 395.123ZM458.975 394.658C458.975 357.152 414.941 333.584 379.903 352.337C344.866 371.089 344.866 418.226 379.904 436.979C414.941 455.732 458.975 432.164 458.975 394.658ZM686.02 394.658C686.02 357.152 641.986 333.584 606.948 352.337C571.911 371.089 571.911 418.226 606.948 436.979C641.986 455.732 686.02 432.164 686.02 394.658Z" fill="#6F20A1"/>
</svg>
