<svg width="64" height="64" viewBox="0 0 64 64" fill="none" xmlns="http://www.w3.org/2000/svg">
<g clip-path="url(#clip0_204_9)">
<path fill-rule="evenodd" clip-rule="evenodd" d="M37.6826 0.124738C37.2215 0.124738 36.7906 0.223007 36.3975 0.351514C37.2404 0.918454 37.7015 1.65548 37.9358 2.49833C37.951 2.61172 37.985 2.69487 38.0001 2.81203C38.0152 2.9292 38.0379 3.00857 38.0379 3.1144C38.1059 4.56955 37.6599 4.75097 37.3424 5.60894C36.8624 6.71636 36.9947 7.90694 37.5692 8.8594C37.6218 8.98691 37.6877 9.10852 37.7658 9.22224C37.1383 5.042 40.6269 4.41081 41.2694 3.10684C41.3186 1.9654 40.3775 1.2057 39.6329 0.676559C38.9223 0.245685 38.2722 0.109619 37.6826 0.109619V0.124738ZM42.9363 1.06964C42.8682 1.4476 42.9211 1.34933 42.8985 1.54965L42.8607 1.98052L42.7473 2.37738C42.7095 2.50967 42.6641 2.64195 42.615 2.77424L42.4336 3.1522C42.3844 3.22023 42.3504 3.28448 42.3013 3.34874L42.203 3.49992L41.9536 3.82875C41.8553 3.92702 41.7721 4.04418 41.6512 4.13112C41.5302 4.21805 41.4546 4.32766 41.3375 4.41081C40.9898 4.67538 40.5929 4.87192 40.2301 5.12137C40.1167 5.20452 40.0033 5.27256 39.9012 5.37083C39.7894 5.44997 39.6844 5.53848 39.5875 5.6354C39.4741 5.73367 39.391 5.83194 39.2852 5.9491C39.1793 6.06627 39.1037 6.16454 39.0357 6.27793L38.8089 6.62565L38.6275 7.00361L38.4952 7.38157L38.3818 7.79733C38.3667 7.86536 38.3667 7.94851 38.344 8.01277C38.3214 8.07702 38.3289 8.14505 38.3062 8.20931L38.2911 8.62506C38.2911 8.72333 38.2911 8.8216 38.3062 8.92743C38.3062 9.05972 38.3214 9.192 38.3554 9.34319C38.3894 9.49437 38.4045 9.60776 38.4385 9.74004L38.5708 10.1369C38.6086 10.2201 38.654 10.3032 38.6842 10.3637L34.8819 8.88963L32.9657 8.39829L31.9225 8.14883C30.9276 7.95054 29.9235 7.80169 28.9139 7.70284C28.8761 7.70284 28.8648 7.68772 28.8308 7.68772L25.8713 7.53654L23.7056 7.61969C22.6965 7.68772 21.6873 7.81623 20.682 7.98253L19.9374 8.11482L18.4482 8.44364L17.7036 8.64018L16.9931 8.95389L16.4488 9.20334C16.411 9.21846 16.3808 9.21846 16.3657 9.24114L15.9045 9.46791C15.8554 9.48303 15.8214 9.50571 15.7912 9.51705L15.2771 9.78162C15.1637 9.83076 15.0504 9.89501 14.9483 9.94792C14.8992 9.98572 14.8349 10.0122 14.7971 10.0311L14.3662 10.2805C14.2294 10.3562 14.0969 10.4394 13.9694 10.53L13.6406 10.7568L13.2777 11.0213L12.998 11.2481C12.9602 11.2632 12.93 11.2972 12.8998 11.3161L12.6503 11.5316C12.6352 11.5694 12.6012 11.5807 12.5823 11.5996L12.2799 11.8793L11.9511 12.193L11.6714 12.4954C11.6336 12.5332 11.5882 12.5634 11.558 12.5936C11.4692 12.6972 11.3759 12.7969 11.2783 12.8922C11.2632 12.93 11.2292 12.9414 11.2103 12.9754L10.8323 13.3722L9.94033 14.2302C9.63796 14.4948 9.32803 14.7442 9.01433 14.9559L8.02407 15.5833C7.69525 15.7647 7.34374 15.931 6.9809 16.0747C6.62967 16.2241 6.27145 16.3565 5.90749 16.4715C5.21205 16.6227 4.50148 16.9024 3.88919 16.9515C3.7569 16.9515 3.6095 16.9893 3.47343 17.0007L3.05767 17.0989L2.66082 17.2501C2.5255 17.3037 2.39304 17.3643 2.26396 17.4315C2.15057 17.5147 2.0145 17.5827 1.90112 17.6583C1.78773 17.7339 1.67434 17.8397 1.57229 17.938C1.47024 18.0363 1.34551 18.1345 1.24347 18.2404L0.963775 18.5692C0.880623 18.7015 0.782354 18.8187 0.714321 18.9472C0.627819 19.0683 0.55074 19.1959 0.483765 19.3289L0.302344 19.7598L0.15116 20.1906L0.0680091 20.5875C0.0188743 20.784 0.0188743 20.9844 -2.37362e-05 21.0789C-0.0189217 21.1733 -2.37362e-05 21.2981 -2.37362e-05 21.4152C-0.00323455 21.4874 0.00183804 21.5597 0.0150947 21.6307C0.0302131 21.7441 0.0528907 21.8461 0.0831275 21.9444L0.196516 22.2467C0.24565 22.3601 0.309904 22.4622 0.377936 22.5605L0.593374 22.8628L0.873064 23.1274C0.96995 23.2243 1.0749 23.3128 1.18677 23.392C1.58363 23.7397 1.67812 23.8531 2.19592 24.1177C2.27908 24.1668 2.36223 24.2008 2.4605 24.2499C2.50963 24.2991 2.50963 24.3142 2.52853 24.3482C2.54365 24.4805 2.57766 24.6128 2.61168 24.7451C2.64324 24.8812 2.68753 25.0141 2.74397 25.1419L2.87625 25.4443C2.89137 25.4821 2.91405 25.5123 2.92539 25.5274L3.12193 25.8903L3.37138 26.238L3.65107 26.5517C3.74934 26.65 3.84761 26.7331 3.96478 26.8314L4.2936 27.0809C4.40699 27.164 4.52038 27.232 4.65645 27.2963C4.77872 27.3667 4.90637 27.4274 5.03819 27.4777C5.13645 27.5269 5.25362 27.5609 5.36701 27.5911C5.4804 27.6213 5.58245 27.6591 5.6467 27.6743C5.59757 28.5662 5.57867 29.4129 5.71473 29.7077C5.86592 30.0365 6.5916 29.0274 7.31729 27.8746C7.21902 29.016 7.15098 30.354 7.31729 30.7471C7.48359 31.1402 8.48896 29.8702 9.35071 28.4491C21.0675 25.7391 31.7638 33.8388 32.8863 45.2759C32.6709 43.4919 30.4749 42.4979 29.4658 42.7435C28.9744 43.9681 28.1278 45.5404 26.7709 46.5118C26.8843 45.4157 26.8351 44.2969 26.6046 43.2046C26.2348 44.7262 25.5355 46.1481 24.556 47.3698C22.9875 47.4832 21.419 46.7272 20.5875 45.5858C20.5194 45.5367 20.5043 45.4346 20.4552 45.3704L20.3229 45.0226C20.2738 44.9092 20.2397 44.7959 20.2246 44.6749C20.2095 44.554 20.2095 44.4481 20.2095 44.3121V44.0626C20.2246 43.9492 20.2586 43.8358 20.2927 43.7149L20.406 43.3672C20.4741 43.2538 20.5194 43.1404 20.6026 43.0194C20.8823 42.2635 20.8823 41.5832 20.3758 41.2052C20.2775 41.1372 20.1793 41.0918 20.0621 41.0389C19.9941 41.0238 19.9109 40.9898 19.8467 40.9709L19.7144 40.9218L19.3667 40.8386C19.2536 40.8059 19.1366 40.7894 19.0189 40.7895C18.8989 40.7699 18.7777 40.7586 18.6561 40.7555C18.5729 40.7555 18.4898 40.7706 18.4066 40.7706C18.284 40.7696 18.1618 40.7861 18.0438 40.8197L17.6961 40.884L17.3483 40.9974L17.0195 41.1485L16.7058 41.3148C12.8506 43.8283 15.1562 49.7056 17.7792 51.4139C16.789 51.5954 15.776 51.8108 15.5001 52.0262C16.1805 52.4873 16.9213 52.8577 17.6999 53.1677L20.3758 53.9236C21.7478 54.226 23.1349 54.3205 24.5409 54.2373C28.1124 53.9758 31.4876 52.5029 34.1082 50.0624C36.7289 47.6218 38.4379 44.3598 38.9526 40.8159L39.0508 41.2468L39.202 42.1728L39.27 42.6188L39.3078 43.1102L39.3456 43.6544V43.919C39.3456 44.0021 39.3607 44.1004 39.3607 44.1836C39.3607 44.2667 39.3456 44.3801 39.3456 44.4859V44.7127C39.3456 44.8261 39.3305 44.9281 39.3305 45.0415C39.3305 45.1058 39.3305 45.1738 39.3154 45.257L39.3003 45.6198C39.2852 45.6689 39.2852 45.7181 39.2852 45.771L39.236 46.149C39.236 46.1981 39.236 46.2472 39.2209 46.3001L39.1566 46.7801V46.8179L39.0584 47.2791L38.9601 47.7704L38.8278 48.2844L38.6955 48.7985L38.5292 49.3276L38.1664 50.2876L37.9699 50.7676L37.7431 51.2287C37.728 51.2779 37.7053 51.3119 37.6939 51.3421C36.5865 53.557 34.9991 55.4619 33.0148 56.9435C32.8825 57.0266 32.7502 57.1249 32.6179 57.2232C32.5801 57.261 32.5348 57.2723 32.5046 57.3063L32.1417 57.5558L32.1908 57.6541H32.206L32.9014 57.5558H32.9165L34.2016 57.329C34.315 57.3139 34.451 57.2799 34.5644 57.2459L34.7912 57.1967L35.1389 57.1325L35.4413 57.0493C37.093 56.6525 38.6918 56.1044 40.2338 55.4619C37.607 59.0525 34.0844 61.9401 29.9684 63.8413C31.8696 63.709 33.7707 63.3953 35.6 62.8661C42.2597 60.9007 47.8649 56.4219 51.2211 50.3859C50.5406 54.2128 49.0228 57.8421 46.7763 61.0141C48.3789 59.9558 49.8491 58.735 51.1909 57.3479C54.8903 53.4852 57.3185 48.5826 58.1492 43.2991C58.7161 45.9071 58.8748 48.6057 58.6292 51.2665C70.5614 34.6212 59.6194 17.3635 55.0385 12.8204C55.0234 12.7826 55.0007 12.7713 55.0007 12.7373C54.9629 12.9338 54.9516 13.1341 54.9365 13.3307C54.8874 13.7086 54.8382 14.0752 54.7702 14.4381C54.7022 14.8009 54.5888 15.1638 54.4905 15.5342C54.3922 15.9046 54.241 16.2447 54.0936 16.5925C53.9462 16.9402 53.7799 17.2728 53.6023 17.6016C53.4201 17.9249 53.2221 18.239 53.0089 18.5427C52.7935 18.8564 52.5629 19.155 52.3286 19.4347C52.0819 19.7224 51.8221 19.9986 51.55 20.2625C51.3837 20.4136 51.2363 20.5421 51.07 20.6782L50.692 21.007C50.3968 21.2412 50.0876 21.457 49.766 21.6534C49.4504 21.8569 49.1249 22.0449 48.7909 22.2165C48.4431 22.3828 48.0954 22.5302 47.7477 22.6776C47.3957 22.8108 47.0375 22.9269 46.6743 23.0253C46.3114 23.1236 45.9297 23.2068 45.5669 23.2748C45.204 23.3428 44.8109 23.3731 44.4443 23.4071C44.1797 23.4222 43.9152 23.4449 43.6884 23.4449C43.3104 23.4449 42.9325 23.4071 42.5659 23.3768C42.1992 23.3466 41.8099 23.2937 41.4395 23.2105C41.0644 23.1427 40.6944 23.0492 40.3321 22.9309H40.317C40.6798 22.8931 41.0427 22.8628 41.4131 22.7986C41.7835 22.7343 42.1577 22.6474 42.5205 22.5491C42.8833 22.4508 43.2462 22.3337 43.5939 22.2014C43.9416 22.0691 44.3045 21.899 44.6371 21.7403C44.9758 21.5751 45.3063 21.3935 45.6273 21.196C45.941 20.9806 46.2547 20.7651 46.5533 20.5346C46.8495 20.3041 47.131 20.0555 47.3962 19.79C47.6759 19.5406 47.9253 19.2609 48.1748 18.9812C48.4242 18.7015 48.6548 18.3878 48.8702 18.0892C48.908 18.0401 48.9383 17.9758 48.9685 17.9229L49.4485 17.167C49.6299 16.8381 49.7962 16.5055 49.9399 16.1578C50.0835 15.8101 50.2195 15.4624 50.3367 15.0995C50.4539 14.7367 50.5333 14.389 50.6164 14.0261C50.6996 13.6633 50.7487 13.2815 50.7827 12.9187C50.8167 12.5558 50.847 12.1628 50.847 11.7961C50.847 11.5316 50.8318 11.267 50.8092 11.0402C50.7714 10.6623 50.726 10.2956 50.6769 9.9328C50.6111 9.55996 50.5279 9.19041 50.4274 8.82538C50.314 8.47766 50.2006 8.11482 50.0646 7.76709C49.9285 7.41937 49.7622 7.07165 49.6035 6.7466C49.4447 6.42155 49.2406 6.08517 49.0365 5.77146C48.8324 5.45776 48.6057 5.15917 48.3751 4.86436L47.6192 4.02151C47.4796 3.88006 47.3359 3.74268 47.1883 3.60953C46.4477 3.03391 45.6809 2.49285 44.8903 1.98808C44.7769 1.92383 44.6749 1.87469 44.5615 1.82178C44.0172 1.47406 43.5032 1.29263 42.9929 1.12633L42.9363 1.06964Z" fill="#6F20A1"/>
</g>
<defs>
<clipPath id="clip0_204_9">
<rect width="64" height="64" fill="white"/>
</clipPath>
</defs>
</svg>
