<svg width="176" height="35" viewBox="0 0 176 35" fill="none" xmlns="http://www.w3.org/2000/svg">
<rect width="176" height="35" rx="2" fill="#6F20A1"/>
<path d="M30.9639 20.9219L33.3086 13.0469H35.5918L32.126 23H30.6221L30.9639 20.9219ZM28.8037 13.0469L31.1416 20.9219L31.4971 23H29.9795L26.5342 13.0469H28.8037ZM38.4766 15.6035V23H36.501V15.6035H38.4766ZM36.3779 13.6758C36.3779 13.3887 36.4782 13.1517 36.6787 12.9648C36.8792 12.778 37.1481 12.6846 37.4854 12.6846C37.818 12.6846 38.0846 12.778 38.2852 12.9648C38.4902 13.1517 38.5928 13.3887 38.5928 13.6758C38.5928 13.9629 38.4902 14.1999 38.2852 14.3867C38.0846 14.5736 37.818 14.667 37.4854 14.667C37.1481 14.667 36.8792 14.5736 36.6787 14.3867C36.4782 14.1999 36.3779 13.9629 36.3779 13.6758ZM44.1025 20.9561C44.1025 20.8148 44.0615 20.6872 43.9795 20.5732C43.8975 20.4593 43.7448 20.3545 43.5215 20.2588C43.3027 20.1585 42.986 20.0674 42.5713 19.9854C42.1976 19.9033 41.849 19.8008 41.5254 19.6777C41.2064 19.5501 40.9284 19.3975 40.6914 19.2197C40.459 19.042 40.2767 18.8324 40.1445 18.5908C40.0124 18.3447 39.9463 18.0645 39.9463 17.75C39.9463 17.4401 40.0124 17.1484 40.1445 16.875C40.2812 16.6016 40.4749 16.36 40.7256 16.1504C40.9808 15.9362 41.2907 15.7699 41.6553 15.6514C42.0244 15.5283 42.4391 15.4668 42.8994 15.4668C43.542 15.4668 44.0934 15.5693 44.5537 15.7744C45.0186 15.9795 45.374 16.262 45.6201 16.6221C45.8708 16.9775 45.9961 17.3831 45.9961 17.8389H44.0273C44.0273 17.6475 43.9863 17.4766 43.9043 17.3262C43.8268 17.1712 43.7038 17.0505 43.5352 16.9639C43.3711 16.8727 43.1569 16.8271 42.8926 16.8271C42.6738 16.8271 42.4847 16.8659 42.3252 16.9434C42.1657 17.0163 42.0426 17.1165 41.9561 17.2441C41.874 17.3672 41.833 17.5039 41.833 17.6543C41.833 17.7682 41.8558 17.8708 41.9014 17.9619C41.9515 18.0485 42.0312 18.1283 42.1406 18.2012C42.25 18.2741 42.3913 18.3424 42.5645 18.4062C42.7422 18.4655 42.9609 18.5202 43.2207 18.5703C43.7539 18.6797 44.2301 18.8232 44.6494 19.001C45.0687 19.1742 45.4014 19.4111 45.6475 19.7119C45.8936 20.0081 46.0166 20.3978 46.0166 20.8809C46.0166 21.209 45.9437 21.5098 45.7979 21.7832C45.652 22.0566 45.4424 22.2959 45.1689 22.501C44.8955 22.7015 44.5674 22.8587 44.1846 22.9727C43.8063 23.082 43.3802 23.1367 42.9062 23.1367C42.2181 23.1367 41.6348 23.0137 41.1562 22.7676C40.6823 22.5215 40.3223 22.2093 40.0762 21.8311C39.8346 21.4482 39.7139 21.0563 39.7139 20.6553H41.5801C41.5892 20.9242 41.6576 21.1406 41.7852 21.3047C41.9173 21.4688 42.0837 21.5872 42.2842 21.6602C42.4893 21.7331 42.7103 21.7695 42.9473 21.7695C43.2025 21.7695 43.4144 21.7354 43.583 21.667C43.7516 21.5941 43.8792 21.4984 43.9658 21.3799C44.057 21.2568 44.1025 21.1156 44.1025 20.9561ZM49.373 15.6035V23H47.3975V15.6035H49.373ZM47.2744 13.6758C47.2744 13.3887 47.3747 13.1517 47.5752 12.9648C47.7757 12.778 48.0446 12.6846 48.3818 12.6846C48.7145 12.6846 48.9811 12.778 49.1816 12.9648C49.3867 13.1517 49.4893 13.3887 49.4893 13.6758C49.4893 13.9629 49.3867 14.1999 49.1816 14.3867C48.9811 14.5736 48.7145 14.667 48.3818 14.667C48.0446 14.667 47.7757 14.5736 47.5752 14.3867C47.3747 14.1999 47.2744 13.9629 47.2744 13.6758ZM54.623 15.6035V16.998H50.3164V15.6035H54.623ZM51.3828 13.7783H53.3516V20.7715C53.3516 20.9857 53.3789 21.1497 53.4336 21.2637C53.4928 21.3776 53.5794 21.4574 53.6934 21.5029C53.8073 21.5439 53.9508 21.5645 54.124 21.5645C54.2471 21.5645 54.3564 21.5599 54.4521 21.5508C54.5524 21.5371 54.6367 21.5234 54.7051 21.5098L54.7119 22.959C54.5433 23.0137 54.361 23.057 54.165 23.0889C53.9691 23.1208 53.7526 23.1367 53.5156 23.1367C53.0827 23.1367 52.7044 23.0661 52.3809 22.9248C52.0618 22.779 51.8158 22.5465 51.6426 22.2275C51.4694 21.9085 51.3828 21.4893 51.3828 20.9697V13.7783ZM59.1484 23.1367C58.5742 23.1367 58.0592 23.0456 57.6035 22.8633C57.1478 22.6764 56.7604 22.4189 56.4414 22.0908C56.127 21.7627 55.8854 21.3822 55.7168 20.9492C55.5482 20.5117 55.4639 20.0469 55.4639 19.5547V19.2812C55.4639 18.7207 55.5436 18.208 55.7031 17.7432C55.8626 17.2783 56.0905 16.875 56.3867 16.5332C56.6875 16.1914 57.0521 15.9294 57.4805 15.7471C57.9089 15.5602 58.3919 15.4668 58.9297 15.4668C59.4538 15.4668 59.9186 15.5534 60.3242 15.7266C60.7298 15.8997 61.0693 16.1458 61.3428 16.4648C61.6208 16.7839 61.8304 17.1667 61.9717 17.6133C62.113 18.0553 62.1836 18.5475 62.1836 19.0898V19.9102H56.3047V18.5977H60.249V18.4473C60.249 18.1738 60.1989 17.93 60.0986 17.7158C60.0029 17.4971 59.8571 17.3239 59.6611 17.1963C59.4652 17.0687 59.2145 17.0049 58.9092 17.0049C58.6494 17.0049 58.4261 17.0618 58.2393 17.1758C58.0524 17.2897 57.8997 17.4492 57.7812 17.6543C57.6673 17.8594 57.5807 18.1009 57.5215 18.3789C57.4668 18.6523 57.4395 18.9531 57.4395 19.2812V19.5547C57.4395 19.8509 57.4805 20.1243 57.5625 20.375C57.6491 20.6257 57.7699 20.8421 57.9248 21.0244C58.0843 21.2067 58.2757 21.348 58.499 21.4482C58.7269 21.5485 58.9844 21.5986 59.2715 21.5986C59.627 21.5986 59.9574 21.5303 60.2627 21.3936C60.5726 21.2523 60.8392 21.0404 61.0625 20.7578L62.0195 21.7969C61.8646 22.0202 61.6527 22.2344 61.3838 22.4395C61.1195 22.6445 60.8005 22.8132 60.4268 22.9453C60.0531 23.0729 59.627 23.1367 59.1484 23.1367ZM68.7598 17.1348V23H66.7842V15.6035H68.6367L68.7598 17.1348ZM68.4863 19.042H67.9395C67.9395 18.527 68.001 18.0531 68.124 17.6201C68.2516 17.1826 68.4362 16.8044 68.6777 16.4854C68.9238 16.1618 69.2269 15.9111 69.5869 15.7334C69.9469 15.5557 70.3639 15.4668 70.8379 15.4668C71.166 15.4668 71.4668 15.5169 71.7402 15.6172C72.0137 15.7129 72.2484 15.8656 72.4443 16.0752C72.6449 16.2803 72.7998 16.5492 72.9092 16.8818C73.0186 17.21 73.0732 17.6042 73.0732 18.0645V23H71.1045V18.2832C71.1045 17.946 71.0589 17.6862 70.9678 17.5039C70.8766 17.3216 70.7467 17.194 70.5781 17.1211C70.4141 17.0482 70.2158 17.0117 69.9834 17.0117C69.7282 17.0117 69.5049 17.0641 69.3135 17.1689C69.1266 17.2738 68.9717 17.4196 68.8486 17.6064C68.7256 17.7887 68.6344 18.0029 68.5752 18.249C68.516 18.4951 68.4863 18.7594 68.4863 19.042ZM72.8887 18.8164L72.1846 18.9053C72.1846 18.4222 72.2438 17.9733 72.3623 17.5586C72.4854 17.1439 72.6654 16.7793 72.9023 16.4648C73.1439 16.1504 73.4424 15.9066 73.7979 15.7334C74.1533 15.5557 74.5635 15.4668 75.0283 15.4668C75.3838 15.4668 75.7074 15.5192 75.999 15.624C76.2907 15.7243 76.5391 15.8861 76.7441 16.1094C76.9538 16.3281 77.1133 16.6152 77.2227 16.9707C77.3366 17.3262 77.3936 17.7614 77.3936 18.2764V23H75.418V18.2764C75.418 17.9346 75.3724 17.6748 75.2812 17.4971C75.1947 17.3148 75.0671 17.1895 74.8984 17.1211C74.7344 17.0482 74.5384 17.0117 74.3105 17.0117C74.0736 17.0117 73.8662 17.0596 73.6885 17.1553C73.5107 17.2464 73.3626 17.374 73.2441 17.5381C73.1257 17.7021 73.0368 17.8936 72.9775 18.1123C72.9183 18.3265 72.8887 18.5612 72.8887 18.8164ZM82.3223 23.1367C81.748 23.1367 81.2331 23.0456 80.7773 22.8633C80.3216 22.6764 79.9342 22.4189 79.6152 22.0908C79.3008 21.7627 79.0592 21.3822 78.8906 20.9492C78.722 20.5117 78.6377 20.0469 78.6377 19.5547V19.2812C78.6377 18.7207 78.7174 18.208 78.877 17.7432C79.0365 17.2783 79.2643 16.875 79.5605 16.5332C79.8613 16.1914 80.2259 15.9294 80.6543 15.7471C81.0827 15.5602 81.5658 15.4668 82.1035 15.4668C82.6276 15.4668 83.0924 15.5534 83.498 15.7266C83.9036 15.8997 84.2432 16.1458 84.5166 16.4648C84.7946 16.7839 85.0042 17.1667 85.1455 17.6133C85.2868 18.0553 85.3574 18.5475 85.3574 19.0898V19.9102H79.4785V18.5977H83.4229V18.4473C83.4229 18.1738 83.3727 17.93 83.2725 17.7158C83.1768 17.4971 83.0309 17.3239 82.835 17.1963C82.639 17.0687 82.3883 17.0049 82.083 17.0049C81.8232 17.0049 81.5999 17.0618 81.4131 17.1758C81.2262 17.2897 81.0736 17.4492 80.9551 17.6543C80.8411 17.8594 80.7546 18.1009 80.6953 18.3789C80.6406 18.6523 80.6133 18.9531 80.6133 19.2812V19.5547C80.6133 19.8509 80.6543 20.1243 80.7363 20.375C80.8229 20.6257 80.9437 20.8421 81.0986 21.0244C81.2581 21.2067 81.4495 21.348 81.6729 21.4482C81.9007 21.5485 82.1582 21.5986 82.4453 21.5986C82.8008 21.5986 83.1312 21.5303 83.4365 21.3936C83.7464 21.2523 84.013 21.0404 84.2363 20.7578L85.1934 21.7969C85.0384 22.0202 84.8265 22.2344 84.5576 22.4395C84.2933 22.6445 83.9743 22.8132 83.6006 22.9453C83.2269 23.0729 82.8008 23.1367 82.3223 23.1367ZM90.8535 21.2295V15.6035H92.8223V23H90.9697L90.8535 21.2295ZM91.0723 19.7119L91.6533 19.6982C91.6533 20.1904 91.5964 20.6484 91.4824 21.0723C91.3685 21.4915 91.1976 21.8561 90.9697 22.166C90.7419 22.4714 90.4548 22.7106 90.1084 22.8838C89.762 23.0524 89.3542 23.1367 88.8848 23.1367C88.5247 23.1367 88.1921 23.0866 87.8867 22.9863C87.5859 22.8815 87.3262 22.7197 87.1074 22.501C86.8932 22.2777 86.7246 21.9928 86.6016 21.6465C86.4831 21.2956 86.4238 20.874 86.4238 20.3818V15.6035H88.3926V20.3955C88.3926 20.6143 88.4176 20.7988 88.4678 20.9492C88.5225 21.0996 88.5977 21.2227 88.6934 21.3184C88.7891 21.4141 88.9007 21.4824 89.0283 21.5234C89.1605 21.5645 89.3063 21.585 89.4658 21.585C89.8714 21.585 90.1904 21.5029 90.4229 21.3389C90.6598 21.1748 90.8262 20.9515 90.9219 20.6689C91.0221 20.3818 91.0723 20.0628 91.0723 19.7119ZM99.7812 17.0254V25.8438H97.8125V15.6035H99.6377L99.7812 17.0254ZM104.464 19.2197V19.3633C104.464 19.901 104.4 20.4001 104.272 20.8604C104.149 21.3206 103.967 21.7217 103.726 22.0635C103.484 22.4007 103.183 22.665 102.823 22.8564C102.468 23.0433 102.058 23.1367 101.593 23.1367C101.142 23.1367 100.75 23.0456 100.417 22.8633C100.084 22.681 99.804 22.4258 99.5762 22.0977C99.3529 21.765 99.1729 21.3799 99.0361 20.9424C98.8994 20.5049 98.7946 20.0355 98.7217 19.5342V19.1582C98.7946 18.6204 98.8994 18.1283 99.0361 17.6816C99.1729 17.2305 99.3529 16.8408 99.5762 16.5127C99.804 16.18 100.082 15.9225 100.41 15.7402C100.743 15.5579 101.132 15.4668 101.579 15.4668C102.049 15.4668 102.461 15.5557 102.816 15.7334C103.176 15.9111 103.477 16.1663 103.719 16.499C103.965 16.8317 104.149 17.2282 104.272 17.6885C104.4 18.1488 104.464 18.6592 104.464 19.2197ZM102.488 19.3633V19.2197C102.488 18.9053 102.461 18.6159 102.406 18.3516C102.356 18.0827 102.274 17.848 102.16 17.6475C102.051 17.4469 101.905 17.292 101.723 17.1826C101.545 17.0687 101.328 17.0117 101.073 17.0117C100.804 17.0117 100.574 17.055 100.383 17.1416C100.196 17.2282 100.043 17.3535 99.9248 17.5176C99.8063 17.6816 99.7174 17.8776 99.6582 18.1055C99.599 18.3333 99.5625 18.5908 99.5488 18.8779V19.8281C99.5716 20.1654 99.6354 20.4684 99.7402 20.7373C99.8451 21.0016 100.007 21.2113 100.226 21.3662C100.444 21.5212 100.731 21.5986 101.087 21.5986C101.347 21.5986 101.565 21.5417 101.743 21.4277C101.921 21.3092 102.064 21.1475 102.174 20.9424C102.288 20.7373 102.368 20.5003 102.413 20.2314C102.463 19.9626 102.488 19.6732 102.488 19.3633ZM105.373 19.377V19.2334C105.373 18.6911 105.451 18.1921 105.605 17.7363C105.76 17.276 105.986 16.8773 106.282 16.54C106.578 16.2028 106.943 15.9408 107.376 15.7539C107.809 15.5625 108.306 15.4668 108.866 15.4668C109.427 15.4668 109.926 15.5625 110.363 15.7539C110.801 15.9408 111.168 16.2028 111.464 16.54C111.765 16.8773 111.993 17.276 112.147 17.7363C112.302 18.1921 112.38 18.6911 112.38 19.2334V19.377C112.38 19.9147 112.302 20.4137 112.147 20.874C111.993 21.3298 111.765 21.7285 111.464 22.0703C111.168 22.4076 110.803 22.6696 110.37 22.8564C109.937 23.0433 109.44 23.1367 108.88 23.1367C108.319 23.1367 107.82 23.0433 107.383 22.8564C106.95 22.6696 106.583 22.4076 106.282 22.0703C105.986 21.7285 105.76 21.3298 105.605 20.874C105.451 20.4137 105.373 19.9147 105.373 19.377ZM107.342 19.2334V19.377C107.342 19.6868 107.369 19.9762 107.424 20.2451C107.479 20.514 107.565 20.751 107.684 20.9561C107.807 21.1566 107.966 21.3138 108.162 21.4277C108.358 21.5417 108.597 21.5986 108.88 21.5986C109.153 21.5986 109.388 21.5417 109.584 21.4277C109.78 21.3138 109.937 21.1566 110.056 20.9561C110.174 20.751 110.261 20.514 110.315 20.2451C110.375 19.9762 110.404 19.6868 110.404 19.377V19.2334C110.404 18.9326 110.375 18.6501 110.315 18.3857C110.261 18.1169 110.172 17.8799 110.049 17.6748C109.93 17.4652 109.773 17.3011 109.577 17.1826C109.381 17.0641 109.144 17.0049 108.866 17.0049C108.588 17.0049 108.351 17.0641 108.155 17.1826C107.964 17.3011 107.807 17.4652 107.684 17.6748C107.565 17.8799 107.479 18.1169 107.424 18.3857C107.369 18.6501 107.342 18.9326 107.342 19.2334ZM115.559 17.2168V23H113.59V15.6035H115.442L115.559 17.2168ZM117.787 15.5557L117.753 17.3809C117.657 17.3672 117.541 17.3558 117.404 17.3467C117.272 17.333 117.151 17.3262 117.042 17.3262C116.764 17.3262 116.522 17.3626 116.317 17.4355C116.117 17.5039 115.948 17.6064 115.812 17.7432C115.679 17.8799 115.579 18.0462 115.511 18.2422C115.447 18.4382 115.41 18.6615 115.401 18.9121L115.005 18.7891C115.005 18.3105 115.053 17.8708 115.148 17.4697C115.244 17.0641 115.383 16.7109 115.565 16.4102C115.752 16.1094 115.98 15.877 116.249 15.7129C116.518 15.5488 116.826 15.4668 117.172 15.4668C117.281 15.4668 117.393 15.4759 117.507 15.4941C117.621 15.5078 117.714 15.5283 117.787 15.5557ZM122.682 15.6035V16.998H118.375V15.6035H122.682ZM119.441 13.7783H121.41V20.7715C121.41 20.9857 121.438 21.1497 121.492 21.2637C121.551 21.3776 121.638 21.4574 121.752 21.5029C121.866 21.5439 122.009 21.5645 122.183 21.5645C122.306 21.5645 122.415 21.5599 122.511 21.5508C122.611 21.5371 122.695 21.5234 122.764 21.5098L122.771 22.959C122.602 23.0137 122.42 23.057 122.224 23.0889C122.028 23.1208 121.811 23.1367 121.574 23.1367C121.141 23.1367 120.763 23.0661 120.439 22.9248C120.12 22.779 119.874 22.5465 119.701 22.2275C119.528 21.9085 119.441 21.4893 119.441 20.9697V13.7783ZM126.312 23H124.329V14.9473C124.329 14.3867 124.438 13.915 124.657 13.5322C124.881 13.1449 125.193 12.8532 125.594 12.6572C125.999 12.4567 126.48 12.3564 127.036 12.3564C127.218 12.3564 127.394 12.3701 127.562 12.3975C127.731 12.4202 127.895 12.4499 128.055 12.4863L128.034 13.9697C127.948 13.9469 127.856 13.931 127.761 13.9219C127.665 13.9128 127.553 13.9082 127.426 13.9082C127.189 13.9082 126.986 13.9492 126.817 14.0312C126.653 14.1087 126.528 14.2249 126.441 14.3799C126.355 14.5348 126.312 14.724 126.312 14.9473V23ZM127.788 15.6035V16.998H123.229V15.6035H127.788ZM128.506 19.377V19.2334C128.506 18.6911 128.583 18.1921 128.738 17.7363C128.893 17.276 129.119 16.8773 129.415 16.54C129.711 16.2028 130.076 15.9408 130.509 15.7539C130.942 15.5625 131.438 15.4668 131.999 15.4668C132.56 15.4668 133.059 15.5625 133.496 15.7539C133.934 15.9408 134.3 16.2028 134.597 16.54C134.897 16.8773 135.125 17.276 135.28 17.7363C135.435 18.1921 135.513 18.6911 135.513 19.2334V19.377C135.513 19.9147 135.435 20.4137 135.28 20.874C135.125 21.3298 134.897 21.7285 134.597 22.0703C134.3 22.4076 133.936 22.6696 133.503 22.8564C133.07 23.0433 132.573 23.1367 132.013 23.1367C131.452 23.1367 130.953 23.0433 130.516 22.8564C130.083 22.6696 129.716 22.4076 129.415 22.0703C129.119 21.7285 128.893 21.3298 128.738 20.874C128.583 20.4137 128.506 19.9147 128.506 19.377ZM130.475 19.2334V19.377C130.475 19.6868 130.502 19.9762 130.557 20.2451C130.611 20.514 130.698 20.751 130.816 20.9561C130.939 21.1566 131.099 21.3138 131.295 21.4277C131.491 21.5417 131.73 21.5986 132.013 21.5986C132.286 21.5986 132.521 21.5417 132.717 21.4277C132.913 21.3138 133.07 21.1566 133.188 20.9561C133.307 20.751 133.394 20.514 133.448 20.2451C133.507 19.9762 133.537 19.6868 133.537 19.377V19.2334C133.537 18.9326 133.507 18.6501 133.448 18.3857C133.394 18.1169 133.305 17.8799 133.182 17.6748C133.063 17.4652 132.906 17.3011 132.71 17.1826C132.514 17.0641 132.277 17.0049 131.999 17.0049C131.721 17.0049 131.484 17.0641 131.288 17.1826C131.097 17.3011 130.939 17.4652 130.816 17.6748C130.698 17.8799 130.611 18.1169 130.557 18.3857C130.502 18.6501 130.475 18.9326 130.475 19.2334ZM131.056 14.6055L132.396 12.5H134.535L132.655 14.6055H131.056ZM138.801 12.5V23H136.825V12.5H138.801ZM142.506 15.6035V23H140.53V15.6035H142.506ZM140.407 13.6758C140.407 13.3887 140.507 13.1517 140.708 12.9648C140.909 12.778 141.177 12.6846 141.515 12.6846C141.847 12.6846 142.114 12.778 142.314 12.9648C142.52 13.1517 142.622 13.3887 142.622 13.6758C142.622 13.9629 142.52 14.1999 142.314 14.3867C142.114 14.5736 141.847 14.667 141.515 14.667C141.177 14.667 140.909 14.5736 140.708 14.3867C140.507 14.1999 140.407 13.9629 140.407 13.6758ZM143.818 19.377V19.2334C143.818 18.6911 143.896 18.1921 144.051 17.7363C144.206 17.276 144.431 16.8773 144.728 16.54C145.024 16.2028 145.388 15.9408 145.821 15.7539C146.254 15.5625 146.751 15.4668 147.312 15.4668C147.872 15.4668 148.371 15.5625 148.809 15.7539C149.246 15.9408 149.613 16.2028 149.909 16.54C150.21 16.8773 150.438 17.276 150.593 17.7363C150.748 18.1921 150.825 18.6911 150.825 19.2334V19.377C150.825 19.9147 150.748 20.4137 150.593 20.874C150.438 21.3298 150.21 21.7285 149.909 22.0703C149.613 22.4076 149.248 22.6696 148.815 22.8564C148.382 23.0433 147.886 23.1367 147.325 23.1367C146.765 23.1367 146.266 23.0433 145.828 22.8564C145.395 22.6696 145.028 22.4076 144.728 22.0703C144.431 21.7285 144.206 21.3298 144.051 20.874C143.896 20.4137 143.818 19.9147 143.818 19.377ZM145.787 19.2334V19.377C145.787 19.6868 145.814 19.9762 145.869 20.2451C145.924 20.514 146.01 20.751 146.129 20.9561C146.252 21.1566 146.411 21.3138 146.607 21.4277C146.803 21.5417 147.043 21.5986 147.325 21.5986C147.599 21.5986 147.833 21.5417 148.029 21.4277C148.225 21.3138 148.382 21.1566 148.501 20.9561C148.619 20.751 148.706 20.514 148.761 20.2451C148.82 19.9762 148.85 19.6868 148.85 19.377V19.2334C148.85 18.9326 148.82 18.6501 148.761 18.3857C148.706 18.1169 148.617 17.8799 148.494 17.6748C148.376 17.4652 148.218 17.3011 148.022 17.1826C147.826 17.0641 147.59 17.0049 147.312 17.0049C147.034 17.0049 146.797 17.0641 146.601 17.1826C146.409 17.3011 146.252 17.4652 146.129 17.6748C146.01 17.8799 145.924 18.1169 145.869 18.3857C145.814 18.6501 145.787 18.9326 145.787 19.2334Z" fill="white"/>
</svg>
