<svg width="800" height="800" viewBox="0 0 800 800" fill="none" xmlns="http://www.w3.org/2000/svg">
<g clip-path="url(#clip0_205_17)">
<path d="M655.762 563.384L431.265 94.3701C419.695 70.2031 386.116 68.2141 371.79 90.8471L122.827 483.993C117.458 492.469 117.614 503.311 123.217 511.631L248.628 697.83C256.415 709.387 270.728 714.6 284.105 710.752L635.027 609.677C654.748 603.996 664.641 581.922 655.762 563.384ZM606.18 580.245L311.041 663.042C304.203 664.966 297.781 658.908 299.263 651.953L403.9 162.737C405.785 153.923 417.732 152.493 421.632 160.618L614.591 562.071C617.958 569.429 613.967 578.061 606.18 580.245Z" fill="#6F20A1"/>
</g>
<defs>
<clipPath id="clip0_205_17">
<rect width="650" height="650" fill="white" transform="translate(75 75)"/>
</clipPath>
</defs>
</svg>
