<svg width="800" height="800" viewBox="0 0 800 800" fill="none" xmlns="http://www.w3.org/2000/svg">
<path d="M400 33.3334C233.333 33.3334 100 78 100 133.333V200C100 255.333 233.333 300 400 300C566.667 300 700 255.333 700 200V133.333C700 78 566.667 33.3334 400 33.3334Z" fill="#6F20A1"/>
<path d="M400 366.667C233.333 366.667 100 322 100 266.667V433.333C100 488.667 233.333 533.333 400 533.333C566.667 533.333 700 488.667 700 433.333V266.667C700 322 566.667 366.667 400 366.667Z" fill="#6F20A1"/>
<path d="M400 600C233.333 600 100 555.333 100 500V666.667C100 722 233.333 766.667 400 766.667C566.667 766.667 700 722 700 666.667V500C700 555.333 566.667 600 400 600Z" fill="#6F20A1"/>
</svg>
